PathFileType	4	(X/Y/Z)	/Users/itak/Documents/Research/Walk-IL/dataset/trc/00262_00009.trc
DataRate	CameraRate	NumFrames	NumMarkers	Units	OrigDataRate	OrigDataStartFrame	OrigNumFrames
100.000000	100.000000	4	53	mm	100.000000	0	418
Frame#	Time	RPSI			LPSI			L3			STRN			T10			C7			CLAV			RBAK			LBAK			LSHO			LUPA			LAEL			LAOL			LWTS			LWPS			LFRA			LIFD			LHPS			LHTS			RSHO			RUPA			RAEL			RAOL			RWTS			RWPS			RFRA			RIFD			RHTS			RHPS			RBHD			LFHD			RFHD			LBHD			LHIP			RHIP			RASI			LASI			LKNE			LTHI			LANK			LTIP			LTOE			LMT1			LMT5			LHEE			RKNE			RTHI			RANK			RTIP			RTOE			RMT1			RMT5			RHEE			
		X1	Y1	Z1	X2	Y2	Z2	X3	Y3	Z3	X4	Y4	Z4	X5	Y5	Z5	X6	Y6	Z6	X7	Y7	Z7	X8	Y8	Z8	X9	Y9	Z9	X10	Y10	Z10	X11	Y11	Z11	X12	Y12	Z12	X13	Y13	Z13	X14	Y14	Z14	X15	Y15	Z15	X16	Y16	Z16	X17	Y17	Z17	X18	Y18	Z18	X19	Y19	Z19	X20	Y20	Z20	X21	Y21	Z21	X22	Y22	Z22	X23	Y23	Z23	X24	Y24	Z24	X25	Y25	Z25	X26	Y26	Z26	X27	Y27	Z27	X28	Y28	Z28	X29	Y29	Z29	X30	Y30	Z30	X31	Y31	Z31	X32	Y32	Z32	X33	Y33	Z33	X34	Y34	Z34	X35	Y35	Z35	X36	Y36	Z36	X37	Y37	Z37	X38	Y38	Z38	X39	Y39	Z39	X40	Y40	Z40	X41	Y41	Z41	X42	Y42	Z42	X43	Y43	Z43	X44	Y44	Z44	X45	Y45	Z45	X46	Y46	Z46	X47	Y47	Z47	X48	Y48	Z48	X49	Y49	Z49	X50	Y50	Z50	X51	Y51	Z51	X52	Y52	Z52	X53	Y53	Z53	

1	0	-1537.671508789062	1047.672973632812	699.8773803710938	-1525.202758789062	1049.98388671875	579.471435546875	-1532.3330078125	1137.579467773438	620.3682250976562	-1273.650268554688	1315.465942382812	636.6591796875	-1531.44482421875	1262.308471679688	625.9199829101562	-1459.223999023438	1520.843139648438	627.4601440429688	-1293.98828125	1434.783203125	637.6657104492188	-1542.705932617188	1385.537353515625	697.38720703125	-1474.96240234375	1485.625244140625	515.9000854492188	-1382.641723632812	1485.16162109375	465.416015625	-1413.231811523438	1370.2216796875	382.6911315917969	-1408.427490234375	1159.994140625	350.3473510742188	-1483.490966796875	1146.266479492188	393.4728393554688	-1324.774780273438	925.0505981445312	414.6461181640625	-1344.494262695312	907.8736572265625	334.1852722167969	-1387.184814453125	1052.230102539062	337.8457336425781	-1320.390747070312	731.3317260742188	410.1558227539062	-1328.332275390625	819.1141967773438	341.1903686523438	-1289.60546875	824.5023803710938	396.42041015625	-1411.1787109375	1482.04541015625	799.6680908203125	-1436.034545898438	1418.482299804688	866.0073852539062	-1462.464477539062	1137.875732421875	906.9920654296875	-1482.574829101562	1130.6044921875	813.8570556640625	-1320.2568359375	922.3086547851562	887.1215209960938	-1381.540283203125	909.27490234375	945.177734375	-1437.9326171875	1070.008666992188	924.8597412109375	-1307.161743164062	729.4556884765625	884.7321166992188	-1282.162353515625	802.34765625	909.62744140625	-1340.908081054688	802.7804565429688	953.9448852539062	-1422.275756835938	1668.576538085938	675.7565307617188	-1216.823608398438	1717.8955078125	592.2993774414062	-1223.733520507812	1721.10498046875	691.7713012695312	-1369.10302734375	1672.705200195312	545.8515625	-1412.093383789062	984.4097900390625	448.3352355957031	-1447.66845703125	1011.129272460938	814.3094482421875	-1347.970336914062	1049.957641601562	784.3013916015625	-1316.2275390625	1026.37548828125	504.7624816894531	-1373.635498046875	501.9177856445312	526.5698852539062	-1375.83154296875	644.2169799804688	489.4673156738281	-1495.559448242188	36.89899063110352	568.6801147460938	-1437.968872070312	277.5946350097656	538.2985229492188	-1278.248779296875	47.78266906738281	614.6361083984375	-1344.958251953125	39.30807113647461	660.6200561523438	-1366.868774414062	43.44675827026367	547.34912109375	-1555.930541992188	41.00452423095703	623.2257080078125	-1333.615600585938	524.3428344726562	806.9295654296875	-1365.745239257812	792.5596313476562	832.6395263671875	-1540.304931640625	30.29043006896973	760.3250122070312	-1343.118896484375	401.5150146484375	797.0576171875	-1295.52294921875	60.33399963378906	764.0557861328125	-1345.71240234375	56.93186950683594	714.2667846679688	-1401.279907226562	43.57741928100586	818.9085083007812	-1562.966430664062	67.91973876953125	719.2110595703125	
2	0.01	-1537.119750976562	1047.601196289062	699.6491088867188	-1524.49462890625	1049.959716796875	579.2572021484375	-1531.679443359375	1137.677490234375	620.0269775390625	-1272.53564453125	1315.2294921875	636.5242919921875	-1530.5009765625	1262.36279296875	625.6072387695312	-1457.987426757812	1520.8583984375	627.2177124023438	-1292.875122070312	1434.597412109375	637.5951538085938	-1541.70703125	1385.638793945312	697.1061401367188	-1473.70068359375	1485.657836914062	515.638427734375	-1381.320190429688	1485.088256835938	465.2246704101562	-1412.017944335938	1370.244750976562	382.4056701660156	-1407.38134765625	1159.96875	350.0401611328125	-1482.535400390625	1146.314086914062	393.076416015625	-1323.953491210938	924.92529296875	414.4175720214844	-1343.66552734375	907.8114013671875	333.8927307128906	-1386.28564453125	1052.1513671875	337.5494079589844	-1319.604736328125	731.3578491210938	409.9336547851562	-1327.491577148438	819.055419921875	340.972412109375	-1288.679443359375	824.4187622070312	396.2511901855469	-1410.079833984375	1482.026000976562	799.423095703125	-1435.0517578125	1418.556640625	865.7731323242188	-1461.791137695312	1138.028198242188	907.1792602539062	-1481.931518554688	1130.642456054688	814.0020141601562	-1319.669067382812	922.3640747070312	887.3650512695312	-1380.895751953125	909.42724609375	945.5225219726562	-1437.190551757812	1070.108276367188	925.0050659179688	-1306.515380859375	729.5402221679688	885.201904296875	-1281.60986328125	802.4690551757812	909.9959106445312	-1340.282592773438	802.7360229492188	954.3538818359375	-1420.806030273438	1668.565673828125	675.5858154296875	-1215.24853515625	1717.578125	592.0679931640625	-1222.19970703125	1720.81005859375	691.590576171875	-1367.629760742188	1672.600463867188	545.6228637695312	-1411.370239257812	984.2818603515625	448.1681518554688	-1447.128173828125	1011.171936035156	814.07958984375	-1347.342163085938	1049.86962890625	784.0557250976562	-1315.50634765625	1026.2587890625	504.5838012695312	-1373.437255859375	501.8302612304688	526.2843627929688	-1375.541381835938	644.1365966796875	489.1983642578125	-1495.57958984375	36.86345291137695	568.683349609375	-1437.873657226562	277.6042175292969	538.086669921875	-1278.249389648438	47.76584243774414	614.6160278320312	-1344.942626953125	39.32755661010742	660.5957641601562	-1366.874267578125	43.3811149597168	547.2384033203125	-1555.901245117188	40.96389770507812	623.2574462890625	-1330.415161132812	524.9158325195312	807.3704833984375	-1364.046508789062	792.9840698242188	832.3253784179688	-1539.124877929688	31.64164924621582	760.6241455078125	-1340.288818359375	402.1126403808594	797.4882202148438	-1294.686645507812	60.98908233642578	764.4096069335938	-1344.577880859375	57.80744552612305	714.690673828125	-1400.161743164062	44.61966705322266	819.274658203125	-1562.010375976562	69.19917297363281	719.3836669921875	
3	0.02	-1536.3798828125	1047.532958984375	699.3628540039062	-1523.584106445312	1049.936279296875	578.9827270507812	-1530.812622070312	1137.800659179688	619.6234741210938	-1271.14990234375	1314.942993164062	636.3784790039062	-1529.2958984375	1262.446655273438	625.2399291992188	-1456.405395507812	1520.880493164062	626.9191284179688	-1291.44580078125	1434.369506835938	637.50341796875	-1540.413940429688	1385.770751953125	696.7587890625	-1472.080322265625	1485.698486328125	515.3208618164062	-1379.630249023438	1484.99462890625	464.9977416992188	-1410.455932617188	1370.257080078125	382.07275390625	-1406.016723632812	1159.935302734375	349.6739196777344	-1481.29150390625	1146.382446289062	392.5857543945312	-1322.886596679688	924.769287109375	414.1483154296875	-1342.591796875	907.7256469726562	333.5477905273438	-1385.093139648438	1052.05615234375	337.1986389160156	-1318.639282226562	731.348876953125	409.6606750488281	-1326.427368164062	818.9649047851562	340.7100219726562	-1287.550903320312	824.2853393554688	396.0409851074219	-1408.684204101562	1482.0078125	799.1310424804688	-1433.8046875	1418.6474609375	865.4942626953125	-1460.907836914062	1138.218627929688	907.4091796875	-1481.071655273438	1130.711303710938	814.1959228515625	-1318.917114257812	922.4373779296875	887.6665649414062	-1380.079223632812	909.6142578125	945.9473876953125	-1436.25146484375	1070.2490234375	925.2048950195312	-1305.740844726562	729.6356201171875	885.777587890625	-1280.90576171875	802.6067504882812	910.4652099609375	-1339.483032226562	802.7086181640625	954.8489379882812	-1418.936279296875	1668.56396484375	675.382080078125	-1213.25390625	1717.184448242188	591.7913818359375	-1220.244018554688	1720.44873046875	691.3638305664062	-1365.757568359375	1672.48046875	545.3480834960938	-1410.436401367188	984.1387939453125	447.9590148925781	-1446.407104492188	1011.257690429688	813.8096923828125	-1346.530151367188	1049.767211914062	783.7615966796875	-1314.556396484375	1026.129150390625	504.3599548339844	-1373.229614257812	501.7114562988281	525.9188842773438	-1375.198364257812	644.0391845703125	488.8653564453125	-1495.606079101562	36.82062530517578	568.685791015625	-1437.802734375	277.6179809570312	537.8345947265625	-1278.253051757812	47.74673080444336	614.5889282226562	-1344.923217773438	39.35504913330078	660.5615844726562	-1366.886108398438	43.29724884033203	547.1013793945312	-1555.873046875	40.92044830322266	623.29052734375	-1326.365112304688	525.6760864257812	807.931884765625	-1361.917358398438	793.540283203125	831.9764404296875	-1537.40771484375	33.2762451171875	761.0765380859375	-1336.674438476562	402.8885192871094	798.0274658203125	-1293.335327148438	61.86714935302734	764.9634399414062	-1342.908325195312	58.89461135864258	715.2925415039062	-1398.5322265625	45.90781402587891	819.808349609375	-1560.59033203125	70.71056365966797	719.7053833007812	
4	0.03	-1535.460815429688	1047.484985351562	699.032958984375	-1522.496704101562	1049.923706054688	578.66064453125	-1529.745971679688	1137.946044921875	619.1866455078125	-1269.550048828125	1314.624267578125	636.2384643554688	-1527.86669921875	1262.56396484375	624.842041015625	-1454.528442382812	1520.91015625	626.580322265625	-1289.742797851562	1434.11328125	637.3946533203125	-1538.860595703125	1385.930541992188	696.3626098632812	-1470.150146484375	1485.746337890625	514.9660034179688	-1377.626708984375	1484.885131835938	464.7511596679688	-1408.587036132812	1370.252807617188	381.7187805175781	-1404.3701171875	1159.895385742188	349.2746887207031	-1479.788696289062	1146.4697265625	392.0326232910156	-1321.614013671875	924.5888061523438	413.8588256835938	-1341.301635742188	907.6180419921875	333.1760864257812	-1383.630737304688	1051.951171875	336.8192138671875	-1317.547973632812	731.2850341796875	409.3388671875	-1325.179931640625	818.8414306640625	340.4140930175781	-1286.278930664062	824.0972290039062	395.7998352050781	-1407.0390625	1481.994506835938	798.8121948242188	-1432.335815429688	1418.751586914062	865.1889038085938	-1459.833984375	1138.440063476562	907.6696166992188	-1480.018676757812	1130.815673828125	814.432861328125	-1318.023315429688	922.527587890625	888.0113525390625	-1379.1201171875	909.8274536132812	946.43017578125	-1435.150146484375	1070.432983398438	925.4575805664062	-1304.886840820312	729.7350463867188	886.4332885742188	-1280.076538085938	802.7463989257812	911.012939453125	-1338.538940429688	802.7147216796875	955.400390625	-1416.731079101562	1668.578002929688	675.158935546875	-1210.912353515625	1716.7333984375	591.487548828125	-1217.931640625	1720.040649414062	691.1016845703125	-1363.551879882812	1672.355102539062	545.045166015625	-1409.321655273438	983.995849609375	447.7187194824219	-1445.513916015625	1011.393615722656	813.5144653320312	-1345.555419921875	1049.662109375	783.4364013671875	-1313.40380859375	1025.995483398438	504.0993347167969	-1373.041748046875	501.5656127929688	525.4881591796875	-1374.82568359375	643.9307250976562	488.4850463867188	-1495.6376953125	36.77416229248047	568.6857299804688	-1437.780639648438	277.6361999511719	537.5557250976562	-1278.260498046875	47.72800064086914	614.554443359375	-1344.902099609375	39.392333984375	660.5149536132812	-1366.90625	43.19912719726562	546.9447631835938	-1555.851806640625	40.88025283813477	623.3189697265625	-1321.619506835938	526.610595703125	808.5922241210938	-1359.443359375	794.220458984375	831.6320190429688	-1535.105224609375	35.0923957824707	761.6887817382812	-1332.388305664062	403.8248901367188	798.6566162109375	-1291.365234375	62.94927597045898	765.7568969726562	-1340.64404296875	60.12784194946289	716.085205078125	-1396.333984375	47.38481903076172	820.524169921875	-1558.650268554688	72.34877777099609	720.1951293945312	
